<?xml version="1.0" encoding="UTF-8"?>
<svg id="Layer_1" data-name="Layer 1" xmlns="http://www.w3.org/2000/svg" viewBox="0 0 472.817 577.448">
  <defs>
    <style>
      .cls-1 {
        fill: #fff;
        stroke: #231f20;
        stroke-miterlimit: 10;
        stroke-width: 4px;
      }
    </style>
  </defs>
  <path class="cls-1" d="M360.608,196.756l-8.049-2.717-9.496-2.277c-1.793-.43-3.63-.647-5.473-.647h-94.097l-.656-20.499V75.949c-.469-23.812,10.005-44.37,32.906-45.75,35.806-2.157,28.012,30.547,27.57,46.873l30.86,.002c1.24-4.859,1.694-8.382,1.694-8.382,3.797-41.414-5.732-59.243-47.333-65.451-33.633-6.005-75.757,7.864-75.311,84.509v103.366h-77.347c-5.42,0-10.695,1.41-15.618,2.924l-8.049,2.717L2.601,241.582l45.927,113.505c11.489-4.649,22.978-9.297,34.467-13.946v210.214c0,29.205,23.675,23.675,52.88,23.675h201.065c29.205,0,52.88,5.53,52.88-23.675v-210.214c11.489,4.649,22.978,9.297,34.467,13.946l45.927-113.505-109.607-44.826Zm-122.488,74.808c-53.234,0-96.388-18.178-96.388-56.396h192.776c0,38.218-43.154,56.396-96.388,56.396Z"/>
</svg>