<svg width="1440" height="4232" viewBox="0 0 1440 4232" fill="none" xmlns="http://www.w3.org/2000/svg">
<g clip-path="url(#clip0_107_2)">
<rect width="1440" height="4232" fill="black"/>
<rect x="27" y="1415" width="1387" height="1364" rx="22" fill="white"/>
<rect x="22.5" y="815.5" width="575" height="571" rx="13.5" stroke="white" stroke-width="3"/>
<rect x="22.5" y="2803.5" width="1401" height="617" rx="13.5" stroke="white" stroke-width="3"/>
<rect x="15.5" y="18.5" width="1409" height="740" rx="13.5" stroke="white" stroke-width="3"/>
<rect x="-226" y="3502" width="1853" height="173" stroke="white" stroke-width="2"/>
<path d="M932.68 1498.8L936.16 1500.56C933.68 1505.56 928.6 1508.96 922.6 1508.96C914.24 1508.96 907.44 1502.16 907.44 1493.72C907.44 1485.4 914.24 1478.56 922.6 1478.56C928.6 1478.56 933.76 1481.96 936.16 1486.92L932.68 1488.64C930.88 1484.96 927.08 1482.44 922.6 1482.44C916.4 1482.44 911.32 1487.52 911.32 1493.72C911.32 1500 916.4 1505.08 922.6 1505.08C927.08 1505.08 930.8 1502.52 932.68 1498.8ZM939.892 1508V1479.52H943.812V1504.12H959.892V1479.52H963.772V1504.12H967.332V1511.76H963.412V1508H939.892ZM971.181 1508V1479.52H992.821V1483.44H975.061V1491.76H988.061V1495.64H975.061V1504.12H992.821V1508H971.181ZM997.587 1508V1479.52H1001.47V1491.76H1018.19V1479.52H1022.07V1508H1018.19V1495.64H1001.47V1508H997.587ZM1025.27 1508L1037.51 1479.52H1041.43L1053.67 1508H1049.43L1047.63 1503.76H1031.35L1029.51 1508H1025.27ZM1032.99 1499.84H1045.95L1039.47 1484.84L1032.99 1499.84Z" fill="white"/>
<path d="M30.5227 3776V3746.91H48.0795V3750.03H34.0455V3759.12H41.4318C43.5152 3759.12 45.2718 3759.47 46.7017 3760.15C48.1411 3760.83 49.2301 3761.79 49.9688 3763.03C50.7169 3764.27 51.0909 3765.73 51.0909 3767.42C51.0909 3769.11 50.7169 3770.59 49.9688 3771.88C49.2301 3773.17 48.1411 3774.18 46.7017 3774.91C45.2718 3775.64 43.5152 3776 41.4318 3776H30.5227ZM34.0455 3772.93H41.4318C42.7576 3772.93 43.8797 3772.67 44.7983 3772.14C45.7263 3771.6 46.4271 3770.91 46.9006 3770.06C47.3835 3769.21 47.625 3768.31 47.625 3767.36C47.625 3765.97 47.09 3764.77 46.0199 3763.77C44.9498 3762.76 43.4205 3762.25 41.4318 3762.25H34.0455V3772.93ZM56.3786 3776V3773.44L65.9808 3762.93C67.1077 3761.7 68.0357 3760.63 68.7649 3759.72C69.4941 3758.8 70.0339 3757.94 70.3842 3757.14C70.7441 3756.32 70.924 3755.47 70.924 3754.58C70.924 3753.56 70.6778 3752.67 70.1854 3751.92C69.7024 3751.18 69.0395 3750.6 68.1967 3750.19C67.3539 3749.78 66.407 3749.58 65.3558 3749.58C64.2384 3749.58 63.263 3749.81 62.4297 3750.28C61.6058 3750.73 60.9666 3751.37 60.5121 3752.19C60.067 3753.02 59.8445 3753.98 59.8445 3755.09H56.4922C56.4922 3753.39 56.8852 3751.89 57.6712 3750.6C58.4571 3749.31 59.5272 3748.31 60.8814 3747.59C62.245 3746.87 63.7744 3746.51 65.4695 3746.51C67.174 3746.51 68.6844 3746.87 70.0007 3747.59C71.317 3748.31 72.3492 3749.28 73.0973 3750.5C73.8454 3751.72 74.2195 3753.08 74.2195 3754.58C74.2195 3755.65 74.0253 3756.7 73.6371 3757.72C73.2583 3758.73 72.5954 3759.86 71.6484 3761.11C70.7109 3762.35 69.4089 3763.87 67.7422 3765.66L61.2081 3772.65V3772.88H74.7308V3776H56.3786ZM90.4268 3776.4C88.5518 3776.4 86.8804 3776.08 85.4126 3775.43C83.9543 3774.79 82.7943 3773.89 81.9325 3772.75C81.0803 3771.59 80.6162 3770.25 80.5405 3768.73H84.12C84.1958 3769.66 84.5178 3770.47 85.0859 3771.16C85.6541 3771.83 86.3975 3772.35 87.3161 3772.72C88.2346 3773.09 89.2526 3773.27 90.37 3773.27C91.62 3773.27 92.728 3773.05 93.6939 3772.62C94.6598 3772.18 95.4174 3771.58 95.9666 3770.8C96.5159 3770.02 96.7905 3769.12 96.7905 3768.1C96.7905 3767.03 96.5253 3766.09 95.995 3765.28C95.4647 3764.45 94.6882 3763.81 93.6655 3763.34C92.6428 3762.88 91.3928 3762.65 89.9155 3762.65H87.5859V3759.52H89.9155C91.0708 3759.52 92.084 3759.31 92.9553 3758.9C93.8359 3758.48 94.5225 3757.89 95.0149 3757.14C95.5168 3756.38 95.7678 3755.49 95.7678 3754.47C95.7678 3753.48 95.55 3752.62 95.1143 3751.89C94.6787 3751.17 94.0632 3750.6 93.2678 3750.19C92.4818 3749.78 91.5537 3749.58 90.4837 3749.58C89.4799 3749.58 88.5329 3749.76 87.6428 3750.13C86.7621 3750.49 86.0424 3751.02 85.4837 3751.71C84.925 3752.39 84.6219 3753.22 84.5746 3754.18H81.1655C81.2223 3752.66 81.6816 3751.32 82.5433 3750.18C83.4051 3749.02 84.532 3748.12 85.924 3747.48C87.3255 3746.83 88.8643 3746.51 90.5405 3746.51C92.3397 3746.51 93.8833 3746.88 95.1712 3747.61C96.459 3748.32 97.4486 3749.28 98.1399 3750.46C98.8312 3751.64 99.1768 3752.92 99.1768 3754.3C99.1768 3755.93 98.746 3757.33 97.8842 3758.49C97.032 3759.64 95.8719 3760.44 94.4041 3760.89V3761.11C96.2412 3761.42 97.6759 3762.2 98.7081 3763.46C99.7403 3764.71 100.256 3766.26 100.256 3768.1C100.256 3769.68 99.8255 3771.1 98.9638 3772.36C98.1115 3773.61 96.9467 3774.6 95.4695 3775.32C93.9922 3776.04 92.3113 3776.4 90.4268 3776.4ZM104.077 3783.05V3772.88H105.952C106.596 3772.29 107.202 3771.46 107.771 3770.39C108.348 3769.31 108.836 3767.87 109.234 3766.07C109.641 3764.26 109.911 3761.97 110.043 3759.18L110.668 3746.91H127.941V3772.88H131.293V3782.99H127.941V3776H107.43V3783.05H104.077ZM110.157 3772.88H124.589V3750.03H113.85L113.396 3759.18C113.282 3761.3 113.083 3763.23 112.799 3764.95C112.515 3766.66 112.15 3768.18 111.705 3769.51C111.26 3770.82 110.744 3771.95 110.157 3772.88ZM145.935 3776.4C144.06 3776.4 142.388 3776.08 140.92 3775.43C139.462 3774.79 138.302 3773.89 137.44 3772.75C136.588 3771.59 136.124 3770.25 136.048 3768.73H139.628C139.704 3769.66 140.026 3770.47 140.594 3771.16C141.162 3771.83 141.905 3772.35 142.824 3772.72C143.742 3773.09 144.76 3773.27 145.878 3773.27C147.128 3773.27 148.236 3773.05 149.202 3772.62C150.168 3772.18 150.925 3771.58 151.474 3770.8C152.024 3770.02 152.298 3769.12 152.298 3768.1C152.298 3767.03 152.033 3766.09 151.503 3765.28C150.973 3764.45 150.196 3763.81 149.173 3763.34C148.151 3762.88 146.901 3762.65 145.423 3762.65H143.094V3759.52H145.423C146.579 3759.52 147.592 3759.31 148.463 3758.9C149.344 3758.48 150.03 3757.89 150.523 3757.14C151.025 3756.38 151.276 3755.49 151.276 3754.47C151.276 3753.48 151.058 3752.62 150.622 3751.89C150.187 3751.17 149.571 3750.6 148.776 3750.19C147.99 3749.78 147.062 3749.58 145.991 3749.58C144.988 3749.58 144.041 3749.76 143.151 3750.13C142.27 3750.49 141.55 3751.02 140.991 3751.71C140.433 3752.39 140.13 3753.22 140.082 3754.18H136.673C136.73 3752.66 137.189 3751.32 138.051 3750.18C138.913 3749.02 140.04 3748.12 141.432 3747.48C142.833 3746.83 144.372 3746.51 146.048 3746.51C147.848 3746.51 149.391 3746.88 150.679 3747.61C151.967 3748.32 152.956 3749.28 153.648 3750.46C154.339 3751.64 154.685 3752.92 154.685 3754.3C154.685 3755.93 154.254 3757.33 153.392 3758.49C152.54 3759.64 151.38 3760.44 149.912 3760.89V3761.11C151.749 3761.42 153.184 3762.2 154.216 3763.46C155.248 3764.71 155.764 3766.26 155.764 3768.1C155.764 3769.68 155.333 3771.1 154.472 3772.36C153.619 3773.61 152.455 3774.6 150.977 3775.32C149.5 3776.04 147.819 3776.4 145.935 3776.4ZM171.062 3776.4C168.922 3776.4 167.099 3775.82 165.594 3774.65C164.088 3773.48 162.938 3771.78 162.142 3769.55C161.347 3767.32 160.949 3764.62 160.949 3761.45C160.949 3758.31 161.347 3755.63 162.142 3753.4C162.947 3751.17 164.102 3749.46 165.608 3748.29C167.123 3747.1 168.941 3746.51 171.062 3746.51C173.184 3746.51 174.997 3747.1 176.503 3748.29C178.018 3749.46 179.173 3751.17 179.969 3753.4C180.774 3755.63 181.176 3758.31 181.176 3761.45C181.176 3764.62 180.778 3767.32 179.983 3769.55C179.188 3771.78 178.037 3773.48 176.531 3774.65C175.026 3775.82 173.203 3776.4 171.062 3776.4ZM171.062 3773.27C173.184 3773.27 174.831 3772.25 176.006 3770.2C177.18 3768.16 177.767 3765.24 177.767 3761.45C177.767 3758.94 177.497 3756.79 176.957 3755.02C176.427 3753.25 175.66 3751.9 174.656 3750.97C173.662 3750.04 172.464 3749.58 171.062 3749.58C168.96 3749.58 167.317 3750.62 166.134 3752.69C164.95 3754.75 164.358 3757.68 164.358 3761.45C164.358 3763.97 164.623 3766.11 165.153 3767.88C165.684 3769.64 166.446 3770.98 167.44 3771.89C168.444 3772.81 169.652 3773.27 171.062 3773.27ZM195.835 3746.51C197.028 3746.52 198.222 3746.75 199.415 3747.19C200.608 3747.64 201.697 3748.38 202.682 3749.41C203.667 3750.43 204.457 3751.83 205.054 3753.6C205.651 3755.37 205.949 3757.59 205.949 3760.26C205.949 3762.85 205.703 3765.14 205.21 3767.15C204.727 3769.15 204.027 3770.83 203.108 3772.21C202.199 3773.58 201.091 3774.62 199.784 3775.33C198.487 3776.04 197.019 3776.4 195.381 3776.4C193.752 3776.4 192.298 3776.08 191.02 3775.43C189.751 3774.78 188.709 3773.87 187.895 3772.72C187.09 3771.55 186.574 3770.2 186.347 3768.67H189.812C190.125 3770.01 190.745 3771.11 191.673 3771.98C192.611 3772.84 193.847 3773.27 195.381 3773.27C197.625 3773.27 199.396 3772.29 200.693 3770.33C202 3768.37 202.653 3765.6 202.653 3762.02H202.426C201.896 3762.82 201.266 3763.5 200.537 3764.08C199.808 3764.66 198.998 3765.11 198.108 3765.42C197.218 3765.73 196.271 3765.89 195.267 3765.89C193.6 3765.89 192.071 3765.47 190.679 3764.65C189.296 3763.82 188.188 3762.68 187.355 3761.23C186.531 3759.77 186.119 3758.1 186.119 3756.23C186.119 3754.45 186.517 3752.82 187.312 3751.34C188.117 3749.85 189.244 3748.67 190.693 3747.79C192.152 3746.91 193.866 3746.48 195.835 3746.51ZM195.835 3749.64C194.642 3749.64 193.567 3749.93 192.611 3750.53C191.664 3751.12 190.911 3751.91 190.352 3752.92C189.803 3753.91 189.528 3755.02 189.528 3756.23C189.528 3757.44 189.794 3758.54 190.324 3759.54C190.864 3760.52 191.598 3761.31 192.526 3761.89C193.463 3762.47 194.528 3762.76 195.722 3762.76C196.621 3762.76 197.459 3762.59 198.236 3762.24C199.012 3761.88 199.689 3761.39 200.267 3760.77C200.854 3760.15 201.313 3759.44 201.645 3758.66C201.976 3757.86 202.142 3757.03 202.142 3756.17C202.142 3755.03 201.867 3753.97 201.318 3752.97C200.778 3751.98 200.03 3751.18 199.074 3750.56C198.127 3749.94 197.047 3749.64 195.835 3749.64ZM1158.24 3776H1154.55L1165.23 3746.91H1168.86L1179.55 3776H1175.85L1167.16 3751.51H1166.93L1158.24 3776ZM1159.6 3764.64H1174.49V3767.76H1159.6V3764.64ZM1184.08 3776V3746.91H1187.6V3759.86H1203.11V3746.91H1206.63V3776H1203.11V3762.99H1187.6V3776H1184.08ZM1212.1 3750.03V3746.91H1233.91V3750.03H1224.77V3776H1221.24V3750.03H1212.1ZM1239.35 3746.91H1242.82V3769.81H1243.1L1259.01 3746.91H1262.42V3776H1258.9V3753.16H1258.61L1242.76 3776H1239.35V3746.91ZM1291.23 3746.91V3776H1287.71V3750.03H1273.05V3776H1269.52V3746.91H1291.23ZM1298.34 3776V3746.91H1315.89V3750.03H1301.86V3759.86H1314.98V3762.99H1301.86V3772.88H1316.12V3776H1298.34ZM1322.24 3776V3746.91H1325.76V3759.86H1341.28V3746.91H1344.8V3776H1341.28V3762.99H1325.76V3776H1322.24ZM1368.95 3776L1358.95 3762.65H1355.37V3776H1351.85V3746.91H1355.37V3759.52H1356.91L1368.56 3746.91H1372.76L1361 3759.69L1373.16 3776H1368.95ZM1400.89 3761.45C1400.89 3764.52 1400.33 3767.17 1399.23 3769.41C1398.12 3771.64 1396.6 3773.37 1394.67 3774.58C1392.74 3775.79 1390.53 3776.4 1388.05 3776.4C1385.57 3776.4 1383.36 3775.79 1381.43 3774.58C1379.5 3773.37 1377.98 3771.64 1376.87 3769.41C1375.76 3767.17 1375.21 3764.52 1375.21 3761.45C1375.21 3758.39 1375.76 3755.73 1376.87 3753.5C1377.98 3751.27 1379.5 3749.54 1381.43 3748.33C1383.36 3747.12 1385.57 3746.51 1388.05 3746.51C1390.53 3746.51 1392.74 3747.12 1394.67 3748.33C1396.6 3749.54 1398.12 3751.27 1399.23 3753.5C1400.33 3755.73 1400.89 3758.39 1400.89 3761.45ZM1397.48 3761.45C1397.48 3758.94 1397.06 3756.81 1396.22 3755.08C1395.38 3753.34 1394.25 3752.03 1392.82 3751.14C1391.4 3750.25 1389.81 3749.81 1388.05 3749.81C1386.29 3749.81 1384.69 3750.25 1383.26 3751.14C1381.84 3752.03 1380.71 3753.34 1379.87 3755.08C1379.03 3756.81 1378.62 3758.94 1378.62 3761.45C1378.62 3763.97 1379.03 3766.1 1379.87 3767.83C1380.71 3769.57 1381.84 3770.88 1383.26 3771.77C1384.69 3772.66 1386.29 3773.1 1388.05 3773.1C1389.81 3773.1 1391.4 3772.66 1392.82 3771.77C1394.25 3770.88 1395.38 3769.57 1396.22 3767.83C1397.06 3766.1 1397.48 3763.97 1397.48 3761.45Z" fill="white"/>
<rect x="615.5" y="815.5" width="797" height="571" rx="13.5" stroke="white" stroke-width="3"/>
</g>
<defs>
<clipPath id="clip0_107_2">
<rect width="1440" height="4232" fill="white"/>
</clipPath>
</defs>
</svg>
